<svg width="58" height="58" viewBox="0 0 58 58" fill="none" xmlns="http://www.w3.org/2000/svg">
<path d="M47.9918 36.3064L39.9514 43.4983L42.401 54.2537C42.5362 54.8376 42.5014 55.4499 42.301 56.0132C42.1006 56.5766 41.7437 57.0658 41.2752 57.4189C40.8068 57.7721 40.2479 57.9735 39.6691 57.9976C39.0904 58.0216 38.5177 57.8674 38.0235 57.5542L29.0004 51.7978L19.9719 57.5542C19.4777 57.8656 18.9057 58.0184 18.328 57.9934C17.7502 57.9684 17.1925 57.7668 16.725 57.4139C16.2576 57.0611 15.9013 56.5727 15.701 56.0103C15.5008 55.448 15.4655 54.8368 15.5997 54.2537L18.0583 43.4983L10.0179 36.3064C9.58067 35.9147 9.26446 35.3981 9.10876 34.8212C8.95306 34.2443 8.96476 33.6327 9.14241 33.0627C9.32006 32.4926 9.65578 31.9895 10.1076 31.616C10.5595 31.2426 11.1075 31.0155 11.6831 30.9629L22.225 30.0813L26.2916 19.8797C26.5118 19.3237 26.8864 18.8481 27.3679 18.5134C27.8495 18.1787 28.4161 18 28.9959 18C29.5757 18 30.1423 18.1787 30.6239 18.5134C31.1054 18.8481 31.48 19.3237 31.7001 19.8797L35.765 30.0813L46.3069 30.9629C46.8837 31.0135 47.4332 31.2394 47.8867 31.6123C48.3402 31.9852 48.6775 32.4886 48.8563 33.0593C49.035 33.63 49.0473 34.2427 48.8916 34.8207C48.7359 35.3986 48.4192 35.9161 47.981 36.3082L47.9918 36.3064Z" fill="#7037FF"/>
</svg>
