<svg width="10" height="9" viewBox="0 0 10 9" fill="none" xmlns="http://www.w3.org/2000/svg">
<path d="M9.48804 4.5C9.48804 4.40054 9.44853 4.30516 9.3782 4.23483C9.30788 4.16451 9.21249 4.125 9.11304 4.125H5.36304V0.375C5.36304 0.275544 5.32353 0.180161 5.2532 0.109835C5.18288 0.0395088 5.08749 0 4.98804 0C4.88858 0 4.7932 0.0395088 4.72287 0.109835C4.65255 0.180161 4.61304 0.275544 4.61304 0.375V4.125H0.863037C0.763581 4.125 0.668198 4.16451 0.597872 4.23483C0.527546 4.30516 0.488037 4.40054 0.488037 4.5C0.488037 4.59946 0.527546 4.69484 0.597872 4.76516C0.668198 4.83549 0.763581 4.875 0.863037 4.875H4.61304V8.625C4.61304 8.72446 4.65255 8.81984 4.72287 8.89016C4.7932 8.96049 4.88858 9 4.98804 9C5.08749 9 5.18288 8.96049 5.2532 8.89016C5.32353 8.81984 5.36304 8.72446 5.36304 8.625V4.875H9.11304C9.21249 4.875 9.30788 4.83549 9.3782 4.76516C9.44853 4.69484 9.48804 4.59946 9.48804 4.5Z" fill="#333333"/>
</svg>
